<svg width="4126" height="3552" viewBox="0 0 4126 3552" fill="none" xmlns="http://www.w3.org/2000/svg">
<g filter="url(#filter0_d_66_44)">
<mask id="path-1-inside-1_66_44" fill="white">
<path d="M2417.25 1256.44H3362.39L3216.52 1402.3H2271.38L2417.25 1256.44Z"/>
</mask>
<path d="M2417.25 1256.44H3362.39L3216.52 1402.3H2271.38L2417.25 1256.44Z" fill="black"/>
<path d="M3362.39 1256.44L3989.59 1883.64C4243.28 1629.96 4319.16 1248.44 4181.87 916.993C4044.58 585.542 3721.15 369.429 3362.39 369.429V1256.44ZM2417.25 1256.44V369.429C2182 369.429 1956.38 462.882 1790.04 629.228L2417.25 1256.44ZM2271.38 1402.3L1644.17 775.09C1390.49 1028.77 1314.6 1410.29 1451.9 1741.74C1589.19 2073.19 1912.62 2289.31 2271.38 2289.31L2271.38 1402.3ZM3216.52 1402.3V2289.31C3451.77 2289.31 3677.39 2195.85 3843.73 2029.51L3216.52 1402.3ZM3362.39 1256.44V369.429H2417.25V1256.44V2143.44H3362.39V1256.44ZM2417.25 1256.44L1790.04 629.228L1644.17 775.09L2271.38 1402.3L2898.59 2029.51L3044.45 1883.64L2417.25 1256.44ZM2271.38 1402.3V2289.31H3216.52V1402.3V515.292H2271.38V1402.3ZM3216.52 1402.3L3843.73 2029.51L3989.59 1883.64L3362.39 1256.44L2735.18 629.228L2589.31 775.09L3216.52 1402.3Z" fill="black" mask="url(#path-1-inside-1_66_44)"/>
<mask id="path-3-inside-2_66_44" fill="white">
<path d="M2417.25 1020.15V1256.44L2271.38 1402.3V1166.01L2417.25 1020.15Z"/>
</mask>
<path d="M2417.25 1020.15V1256.44L2271.38 1402.3V1166.01L2417.25 1020.15Z" fill="black"/>
<path d="M2417.25 1256.44L3044.45 1883.65C3210.8 1717.3 3304.25 1491.69 3304.25 1256.44H2417.25ZM2417.25 1020.15H3304.25C3304.25 661.392 3088.14 337.957 2756.69 200.665C2425.24 63.3734 2043.72 139.262 1790.04 392.944L2417.25 1020.15ZM2271.38 1166.01L1644.17 538.806C1477.83 705.152 1384.38 930.766 1384.38 1166.01H2271.38ZM2271.38 1402.3H1384.38C1384.38 1761.06 1600.49 2084.5 1931.94 2221.79C2263.39 2359.08 2644.91 2283.19 2898.59 2029.51L2271.38 1402.3ZM2417.25 1256.44H3304.25V1020.15H2417.25H1530.24V1256.44H2417.25ZM2417.25 1020.15L1790.04 392.944L1644.17 538.806L2271.38 1166.01L2898.59 1793.22L3044.45 1647.36L2417.25 1020.15ZM2271.38 1166.01H1384.38V1402.3H2271.38H3158.39V1166.01H2271.38ZM2271.38 1402.3L2898.59 2029.51L3044.45 1883.65L2417.25 1256.44L1790.04 629.229L1644.17 775.092L2271.38 1402.3Z" fill="black" mask="url(#path-3-inside-2_66_44)"/>
<path d="M3059.67 1461.87V2895.46H2816.87V1461.87H3059.67ZM1991.97 1326.85V2895.46H1740.13V1326.85H1991.97ZM1030.4 989.296V1193.49H901.66V2895.46H676.962V989.296H1030.4ZM2697.74 1312.63V1342.73H2330.96V1312.63H2697.74ZM3059.67 1225.58V1241.47H2816.87V1225.58H3059.67ZM3059.67 989.296V1106.45H2211.82V1193.49H2094.67V989.296H3059.67ZM1975.54 1090.56V1106.45H1536.72V1193.49H1149.53V1090.56H1975.54Z" fill="#B1E6FF" stroke="#B1E6FF" stroke-width="119.135"/>
<path d="M3302.83 1231.76L3276.1 1258.49V1190.69L3302.83 1163.96V1231.76Z" fill="#B1E6FF" stroke="#B1E6FF" stroke-width="119.135" stroke-linejoin="round"/>
<mask id="path-7-inside-3_66_44" fill="white">
<path d="M3362.39 1210.87V1155.17L3216.53 1301.03V1356.74L3362.39 1210.87Z"/>
</mask>
<path d="M3362.39 1210.87V1155.17L3216.53 1301.03V1356.74L3362.39 1210.87Z" fill="#B1E6FF"/>
<path d="M3362.39 1155.17H3481.53C3481.53 1106.99 3452.5 1063.54 3407.98 1045.1C3363.47 1026.66 3312.22 1036.86 3278.15 1070.93L3362.39 1155.17ZM3362.39 1210.87L3446.64 1295.11C3468.98 1272.77 3481.53 1242.47 3481.53 1210.87H3362.39ZM3216.53 1356.74H3097.4C3097.4 1404.92 3126.42 1448.36 3170.94 1466.8C3215.46 1485.24 3266.7 1475.05 3300.77 1440.98L3216.53 1356.74ZM3216.53 1301.03L3132.29 1216.79C3109.95 1239.13 3097.4 1269.44 3097.4 1301.03H3216.53ZM3362.39 1155.17H3243.26V1210.87H3362.39H3481.53V1155.17H3362.39ZM3362.39 1210.87L3278.15 1126.63L3132.29 1272.49L3216.53 1356.74L3300.77 1440.98L3446.64 1295.11L3362.39 1210.87ZM3216.53 1356.74H3335.67V1301.03H3216.53H3097.4V1356.74H3216.53ZM3216.53 1301.03L3300.77 1385.27L3446.64 1239.41L3362.39 1155.17L3278.15 1070.93L3132.29 1216.79L3216.53 1301.03Z" fill="#B1E6FF" mask="url(#path-7-inside-3_66_44)"/>
<path d="M3218.58 1270.44L3191.85 1297.17H3131.81L3158.54 1270.44H3218.58Z" fill="black" stroke="black" stroke-width="119.135" stroke-linejoin="round"/>
<path d="M3218.57 1214.74L3191.84 1241.47H2921.51L2948.24 1214.74H3218.57Z" fill="#B1E6FF" stroke="#B1E6FF" stroke-width="119.135" stroke-linejoin="round"/>
<mask id="path-11-inside-4_66_44" fill="white">
<path d="M3133.87 1210.87V1256.44L2988 1402.3V1356.74L3133.87 1210.87Z"/>
</mask>
<path d="M3133.87 1210.87V1256.44L2988 1402.3V1356.74L3133.87 1210.87Z" fill="#B1E6FF"/>
<path d="M3133.87 1256.44L3218.11 1340.68C3240.45 1318.34 3253 1288.03 3253 1256.44H3133.87ZM3133.87 1210.87H3253C3253 1162.69 3223.98 1119.25 3179.46 1100.81C3134.94 1082.37 3083.7 1092.56 3049.62 1126.63L3133.87 1210.87ZM2988 1356.74L2903.76 1272.49C2881.42 1294.84 2868.87 1325.14 2868.87 1356.74H2988ZM2988 1402.3H2868.87C2868.87 1450.48 2897.89 1493.93 2942.41 1512.37C2986.93 1530.81 3038.17 1520.61 3072.25 1486.54L2988 1402.3ZM3133.87 1256.44H3253V1210.87H3133.87H3014.73V1256.44H3133.87ZM3133.87 1210.87L3049.62 1126.63L2903.76 1272.49L2988 1356.74L3072.25 1440.98L3218.11 1295.11L3133.87 1210.87ZM2988 1356.74H2868.87V1402.3H2988H3107.14V1356.74H2988ZM2988 1402.3L3072.25 1486.54L3218.11 1340.68L3133.87 1256.44L3049.62 1172.19L2903.76 1318.06L2988 1402.3Z" fill="#B1E6FF" mask="url(#path-11-inside-4_66_44)"/>
<path d="M3218.58 1079.72L3191.85 1106.45H2415.19L2441.92 1079.72H3218.58Z" fill="#B1E6FF" stroke="#B1E6FF" stroke-width="119.135" stroke-linejoin="round"/>
<path d="M2990.05 1316L2963.32 1342.73H2921.51L2948.24 1316H2990.05Z" fill="#B1E6FF" stroke="#B1E6FF" stroke-width="119.135" stroke-linejoin="round"/>
<mask id="path-15-inside-5_66_44" fill="white">
<path d="M2923.56 1155.17V1256.44L2777.7 1402.3V1301.03L2923.56 1155.17Z"/>
</mask>
<path d="M2923.56 1155.17V1256.44L2777.7 1402.3V1301.03L2923.56 1155.17Z" fill="#B1E6FF"/>
<path d="M2923.56 1256.44L3007.8 1340.68C3030.15 1318.34 3042.7 1288.03 3042.7 1256.44H2923.56ZM2923.56 1155.17H3042.7C3042.7 1106.99 3013.67 1063.54 2969.15 1045.1C2924.63 1026.66 2873.39 1036.86 2839.32 1070.93L2923.56 1155.17ZM2777.7 1301.03L2693.46 1216.79C2671.12 1239.13 2658.56 1269.44 2658.56 1301.03H2777.7ZM2777.7 1402.3H2658.56C2658.56 1450.48 2687.59 1493.93 2732.11 1512.37C2776.63 1530.8 2827.87 1520.61 2861.94 1486.54L2777.7 1402.3ZM2923.56 1256.44H3042.7V1155.17H2923.56H2804.43V1256.44H2923.56ZM2923.56 1155.17L2839.32 1070.93L2693.46 1216.79L2777.7 1301.03L2861.94 1385.27L3007.8 1239.41L2923.56 1155.17ZM2777.7 1301.03H2658.56V1402.3H2777.7H2896.83V1301.03H2777.7ZM2777.7 1402.3L2861.94 1486.54L3007.8 1340.68L2923.56 1256.44L2839.32 1172.19L2693.46 1318.06L2777.7 1402.3Z" fill="#B1E6FF" mask="url(#path-15-inside-5_66_44)"/>
<path d="M3205.52 2784.49L3178.79 2811.22V954.402L3205.52 927.676V2784.49Z" fill="#B1E6FF" stroke="#B1E6FF" stroke-width="119.135" stroke-linejoin="round"/>
<path d="M2759.34 1166.76L2732.62 1193.49H2195.34L2222.06 1166.76H2759.34Z" fill="#B1E6FF" stroke="#B1E6FF" stroke-width="119.135" stroke-linejoin="round"/>
<path d="M3121.29 843.434L3094.56 870.161H761.204L787.932 843.434H3121.29Z" fill="#B1E6FF" stroke="#B1E6FF" stroke-width="119.135" stroke-linejoin="round"/>
<path d="M2121.38 1096.74L2094.66 1123.47V1055.67L2121.38 1028.94V1096.74Z" fill="#B1E6FF" stroke="#B1E6FF" stroke-width="119.135" stroke-linejoin="round"/>
<mask id="path-21-inside-6_66_44" fill="white">
<path d="M2180.95 1075.85V1020.15L2035.09 1166.01V1221.72L2180.95 1075.85Z"/>
</mask>
<path d="M2180.95 1075.85V1020.15L2035.09 1166.01V1221.72L2180.95 1075.85Z" fill="#B1E6FF"/>
<path d="M2180.95 1020.15H2300.09C2300.09 971.967 2271.06 928.526 2226.54 910.086C2182.03 891.646 2130.78 901.838 2096.71 935.911L2180.95 1020.15ZM2180.95 1075.85L2265.19 1160.1C2287.54 1137.75 2300.09 1107.45 2300.09 1075.85H2180.95ZM2035.09 1221.72H1915.95C1915.95 1269.9 1944.98 1313.34 1989.5 1331.78C2034.02 1350.22 2085.26 1340.03 2119.33 1305.96L2035.09 1221.72ZM2035.09 1166.01L1950.85 1081.77C1928.51 1104.12 1915.95 1134.42 1915.95 1166.01H2035.09ZM2180.95 1020.15H2061.82V1075.85H2180.95H2300.09V1020.15H2180.95ZM2180.95 1075.85L2096.71 991.613L1950.85 1137.48L2035.09 1221.72L2119.33 1305.96L2265.19 1160.1L2180.95 1075.85ZM2035.09 1221.72H2154.23V1166.01H2035.09H1915.95V1221.72H2035.09ZM2035.09 1166.01L2119.33 1250.26L2265.19 1104.39L2180.95 1020.15L2096.71 935.911L1950.85 1081.77L2035.09 1166.01Z" fill="#B1E6FF" mask="url(#path-21-inside-6_66_44)"/>
<path d="M2037.15 1135.42L2010.42 1162.15H1950.38L1977.11 1135.42H2037.15Z" fill="#B1E6FF" stroke="#B1E6FF" stroke-width="119.135" stroke-linejoin="round"/>
<path d="M2843.57 2784.49L2816.84 2811.22V1277.73L2843.57 1251.01V2784.49Z" fill="#B1E6FF" stroke="#47C5FF" stroke-width="119.135" stroke-linejoin="round"/>
<path d="M2037.13 1079.72L2010.4 1106.45H1740.07L1766.8 1079.72H2037.13Z" fill="#B1E6FF" stroke="#B1E6FF" stroke-width="119.135" stroke-linejoin="round"/>
<mask id="path-26-inside-7_66_44" fill="white">
<path d="M1952.43 1075.85V1121.42L1806.57 1267.28V1221.72L1952.43 1075.85Z"/>
</mask>
<path d="M1952.43 1075.85V1121.42L1806.57 1267.28V1221.72L1952.43 1075.85Z" fill="#B1E6FF"/>
<path d="M1952.43 1121.42L2036.67 1205.66C2059.02 1183.32 2071.57 1153.01 2071.57 1121.42H1952.43ZM1952.43 1075.85H2071.57C2071.57 1027.67 2042.54 984.228 1998.02 965.788C1953.51 947.348 1902.26 957.541 1868.19 991.614L1952.43 1075.85ZM1806.57 1221.72L1722.33 1137.48C1699.99 1159.82 1687.43 1190.12 1687.43 1221.72H1806.57ZM1806.57 1267.28H1687.43C1687.43 1315.47 1716.46 1358.91 1760.98 1377.35C1805.5 1395.79 1856.74 1385.59 1890.81 1351.52L1806.57 1267.28ZM1952.43 1121.42H2071.57V1075.85H1952.43H1833.3V1121.42H1952.43ZM1952.43 1075.85L1868.19 991.614L1722.33 1137.48L1806.57 1221.72L1890.81 1305.96L2036.67 1160.1L1952.43 1075.85ZM1806.57 1221.72H1687.43V1267.28H1806.57H1925.71V1221.72H1806.57ZM1806.57 1267.28L1890.81 1351.52L2036.67 1205.66L1952.43 1121.42L1868.19 1037.18L1722.33 1183.04L1806.57 1267.28Z" fill="#B1E6FF" mask="url(#path-26-inside-7_66_44)"/>
<path d="M2037.14 944.698L2010.42 971.425H1233.76L1260.49 944.698H2037.14Z" fill="#B1E6FF" stroke="#B1E6FF" stroke-width="119.135" stroke-linejoin="round"/>
<path d="M1808.61 1180.98L1781.88 1207.71H1740.07L1766.8 1180.98H1808.61Z" fill="#B1E6FF" stroke="#B1E6FF" stroke-width="119.135" stroke-linejoin="round"/>
<mask id="path-30-inside-8_66_44" fill="white">
<path d="M1742.12 1020.15V1121.42L1596.26 1267.28V1166.01L1742.12 1020.15Z"/>
</mask>
<path d="M1742.12 1020.15V1121.42L1596.26 1267.28V1166.01L1742.12 1020.15Z" fill="#B1E6FF"/>
<path d="M1742.12 1121.42L1826.37 1205.66C1848.71 1183.32 1861.26 1153.01 1861.26 1121.42H1742.12ZM1742.12 1020.15H1861.26C1861.26 971.967 1832.23 928.526 1787.72 910.086C1743.2 891.646 1691.96 901.838 1657.88 935.911L1742.12 1020.15ZM1596.26 1166.01L1512.02 1081.77C1489.68 1104.12 1477.13 1134.42 1477.13 1166.01H1596.26ZM1596.26 1267.28H1477.13C1477.13 1315.47 1506.15 1358.91 1550.67 1377.35C1595.19 1395.79 1646.43 1385.59 1680.5 1351.52L1596.26 1267.28ZM1742.12 1121.42H1861.26V1020.15H1742.12H1622.99V1121.42H1742.12ZM1742.12 1020.15L1657.88 935.911L1512.02 1081.77L1596.26 1166.01L1680.5 1250.26L1826.37 1104.39L1742.12 1020.15ZM1596.26 1166.01H1477.13V1267.28H1596.26H1715.4V1166.01H1596.26ZM1596.26 1267.28L1680.5 1351.52L1826.37 1205.66L1742.12 1121.42L1657.88 1037.18L1512.02 1183.04L1596.26 1267.28Z" fill="#B1E6FF" mask="url(#path-30-inside-8_66_44)"/>
<path d="M2037.14 1180.98L2010.42 1207.71H1233.76L1260.49 1180.98H2037.14Z" fill="#B1E6FF" stroke="#B1E6FF" stroke-width="119.135" stroke-linejoin="round"/>
<path d="M1682.62 1166.76L1655.89 1193.49H1105.04L1131.76 1166.76H1682.62Z" fill="#B1E6FF" stroke="#B1E6FF" stroke-width="119.135" stroke-linejoin="round"/>
<path d="M3121.26 2868.74L3094.53 2895.46H2901.08L2927.81 2868.74H3121.26Z" fill="#B1E6FF" stroke="#B1E6FF" stroke-width="119.135" stroke-linejoin="round"/>
<path d="M2137.82 2784.49L2111.09 2811.22V1277.73L2137.82 1251.01V2784.49Z" fill="#B1E6FF" stroke="#B1E6FF" stroke-width="119.135" stroke-linejoin="round"/>
<path d="M1176.24 1096.74L1149.52 1123.47V1055.67L1176.24 1028.94V1096.74Z" fill="#B1E6FF" stroke="#B1E6FF" stroke-width="119.135" stroke-linejoin="round"/>
<path d="M1766.85 2784.49L1740.12 2811.22V1277.73L1766.85 1251.01V2784.49Z" fill="#B1E6FF" stroke="#47C5FF" stroke-width="119.135" stroke-linejoin="round"/>
<path d="M2053.58 2868.74L2026.86 2895.46H1824.36L1851.09 2868.74H2053.58Z" fill="black" stroke="#61C8F8" stroke-width="119.135" stroke-linejoin="round"/>
<path d="M1047.52 2784.49L1020.79 2811.22V1277.73L1047.52 1251.01V2784.49Z" fill="#B1E6FF" stroke="#B1E6FF" stroke-width="119.135" stroke-linejoin="round"/>
<path d="M703.689 2784.49L676.962 2811.22V954.402L703.689 927.676V2784.49Z" fill="#B1E6FF" stroke="#47B5E7" stroke-width="119.135" stroke-linejoin="round"/>
<path d="M963.282 2868.74L936.555 2895.46H761.204L787.932 2868.74H963.282Z" fill="#B1E6FF" stroke="#61C8F8" stroke-width="119.135" stroke-linejoin="round"/>
<g filter="url(#filter1_d_66_44)">
<path d="M2197.39 2809.17H1826.41V1107.2H1107.07V2809.17H763.238V783.866H3265.08V2809.17H2903.15V1107.2H2197.39V2809.17Z" fill="#B1E6FF"/>
<rect x="2417.23" y="1020.15" width="945.14" height="236.285" fill="black"/>
<rect x="1235.79" y="885.13" width="945.14" height="236.285" fill="black"/>
<path d="M3175.21 1126.87H2736.39V1182.57H2946.69H3175.21V1126.87Z" fill="white"/>
<path d="M1962.21 1020.15H1523.39V1075.85H1733.69H1962.21V1020.15Z" fill="white"/>
</g>
</g>
<defs>
<filter id="filter0_d_66_44" x="407.395" y="583.866" width="3245" height="2671.16" filterUnits="userSpaceOnUse" color-interpolation-filters="sRGB">
<feFlood flood-opacity="0" result="BackgroundImageFix"/>
<feColorMatrix in="SourceAlpha" type="matrix" values="0 0 0 0 0 0 0 0 0 0 0 0 0 0 0 0 0 0 127 0" result="hardAlpha"/>
<feOffset dx="40" dy="50"/>
<feGaussianBlur stdDeviation="125"/>
<feComposite in2="hardAlpha" operator="out"/>
<feColorMatrix type="matrix" values="0 0 0 0 0 0 0 0 0 0 0 0 0 0 0 0 0 0 0.25 0"/>
<feBlend mode="normal" in2="BackgroundImageFix" result="effect1_dropShadow_66_44"/>
<feBlend mode="normal" in="SourceGraphic" in2="effect1_dropShadow_66_44" result="shape"/>
</filter>
<filter id="filter1_d_66_44" x="0.00012207" y="-7.62939e-06" width="4125.61" height="3551.78" filterUnits="userSpaceOnUse" color-interpolation-filters="sRGB">
<feFlood flood-opacity="0" result="BackgroundImageFix"/>
<feColorMatrix in="SourceAlpha" type="matrix" values="0 0 0 0 0 0 0 0 0 0 0 0 0 0 0 0 0 0 127 0" result="hardAlpha"/>
<feOffset dy="-20.6281"/>
<feGaussianBlur stdDeviation="381.619"/>
<feComposite in2="hardAlpha" operator="out"/>
<feColorMatrix type="matrix" values="0 0 0 0 1 0 0 0 0 1 0 0 0 0 1 0 0 0 0.13 0"/>
<feBlend mode="normal" in2="BackgroundImageFix" result="effect1_dropShadow_66_44"/>
<feBlend mode="normal" in="SourceGraphic" in2="effect1_dropShadow_66_44" result="shape"/>
</filter>
</defs>
</svg>
