<svg xmlns="http://www.w3.org/2000/svg" width="504" height="346" fill="none" viewBox="0 0 504 346">
    <path fill="#ad8dff" stroke="#ad8dff" d="M136.16 8.16a59 59 0 0 1 20.92-2.6c3.2.13 6.38.42 9.76.7s6.93.52 10.86.57c14.92.16 31.3-.4 47.53-.71 16.25-.31 32.35-.37 46.76.8 32.88 2.68 88.34 15.5 122.04 22.62 2 .42 4.43.8 6.75 1.22 2.34.43 4.58.9 6.28 1.52q1.97.72 4.67 2.88a70 70 0 0 1 5.86 5.35c4.21 4.22 8.92 9.58 13.64 15.1 4.72 5.5 9.46 11.18 13.72 16 4.21 4.76 7.99 8.74 10.84 10.94l42.67 80.21-40.8 85.67-64.11 24.45-.2.08-.09.2L364 344.84q-.23.07-.7.08-.66 0-1.45-.16a8 8 0 0 1-1.46-.44 3 3 0 0 1-.97-.58c-17.8-17.55-36.1-34.83-55.72-51.06l-.13-.11h-.17l-163.85-6.9c-39.27-15.84-76.49-35.1-114.52-52.93-.86-.85-1.73-2.37-2.59-4.34-.87-2-1.7-4.4-2.47-6.87s-1.47-5-2.09-7.28c-.62-2.26-1.16-4.28-1.59-5.69-1.98-6.57-5.91-18.48-9.38-30.24a309 309 0 0 1-4.5-16.72C1.22 156.55.5 152.3.5 149.55c0-3.31 1.1-8.72 2.85-15.27a393 393 0 0 1 6.7-21.81c4.5-13.46 9.53-27.12 12.57-35.65l1.18-3.32c.92-2.61 2.34-7.42 4.08-12.03a57 57 0 0 1 2.74-6.33c.95-1.8 1.89-3.15 2.79-3.84 17-5.88 34.2-14.05 51.38-22.05 17.22-8.01 34.4-15.85 51.37-21.1Z"/>
    <path fill="#ad8dff" stroke="#ad8dff" stroke-linejoin="round" d="M412.34 27.4q1.87.79 4.37 2.77a70 70 0 0 1 5.87 5.35 286 286 0 0 1 13.64 15.1c4.72 5.52 9.46 11.18 13.72 16 4.03 4.57 7.67 8.42 10.48 10.67l-4.28 4.27c-2.73-2.17-6.35-5.99-10.44-10.61-4.25-4.82-8.98-10.47-13.7-16a286 286 0 0 0-13.7-15.15 71 71 0 0 0-5.95-5.43 22 22 0 0 0-4.23-2.74zm-13.06-2.79c1.95.4 4.26.77 6.48 1.17a48 48 0 0 1 5.53 1.26l-4.2 4.2a45 45 0 0 0-6.13-1.46c-2.01-.36-4.04-.69-5.82-1.03zm104.1 133.07-4.24 4.24-42.34-79.6 4.24-4.25zM277.2 1.96c32.62 2.7 87.2 15.26 120.9 22.4l-4.13 4.15C360.66 21.46 306.14 8.88 273.14 6zm185.4 241.6-2.87 2.87 39.7-83.38 2.87-2.87zM230.22 1.13c15.84-.3 31.54-.36 45.68.73l-4.06 4.05c-14.4-1.16-30.47-1.1-46.63-.8-15.82.31-31.73.85-46.31.73l4-4c14.86.16 31.16-.4 47.32-.7Z"/>
    <path fill="#ad8dff" stroke="#ad8dff" stroke-linejoin="round" d="m457.75 248.4-62.02 23.65 3.26-3.26L461 245.15zM141.26 3.14a59 59 0 0 1 20.8-2.57c3.2.14 6.39.43 9.76.7 3.03.25 6.22.48 9.68.55l-4 4c-3.81-.04-7.27-.29-10.58-.56-3.36-.27-6.57-.57-9.8-.7a60 60 0 0 0-19.38 2.1z"/>
    <path fill="#ad8dff" stroke="#ad8dff" stroke-linejoin="round" d="m368.95 339.94-3.16 3.16 28.36-69.47 3.16-3.16zM135.74 7.24c-17 5.26-34.2 13.11-51.37 21.1-16.52 7.7-33 15.52-49.3 21.31l3.35-3.35c16.99-5.87 34.19-14.04 51.36-22.03 16.55-7.7 33.08-15.26 49.42-20.48z"/>
    <mask id="a" fill="#fff">
        <path d="m369.37 340.24-4.98 4.98v.01z"/>
    </mask>
    <path fill="#ad8dff" d="m369.37 340.24-4.98 4.98v.01z"/>
    <path fill="#ad8dff" d="M369.37 340.23h1a1 1 0 0 0-1.7-.71zm0 0 .7.72a1 1 0 0 0 .3-.71zm-4.98 5h-1a1 1 0 0 0 1.7.7zm0-.02-.71-.7a1 1 0 0 0-.3.7zm4.98-4.98h-1zh1zm0 0-.7-.7-4.99 4.99.7.7.71.71 4.99-4.98zm-4.98 5h1v-.02h-2v.01zm0-.02.7.7 4.99-4.98-.7-.7-.72-.71-4.98 4.98z" mask="url(#a)"/>
    <path fill="#ad8dff" stroke="#ad8dff" stroke-linejoin="round" d="M364.09 339.79q.41.27.9.47a9 9 0 0 0 2.99.66l-3.88 3.88q-.2.1-.8.12-.66 0-1.44-.16a8 8 0 0 1-2.03-.71zm-55.69-51.03c19.31 16 37.37 33.05 54.94 50.36l-4.28 4.28c-17.56-17.3-35.62-34.35-54.94-50.37zM34.4 50.33a69 69 0 0 0-2.97 7.14c-.76 2.1-1.45 4.2-2.06 6.07-.6 1.82-1.1 3.4-1.5 4.54l-3.4 3.4c.89-2.7 2.06-6.42 3.4-10 .87-2.3 1.8-4.52 2.75-6.34.97-1.84 1.93-3.2 2.84-3.88l.06-.05zm272.8 238.2-4.02 4.03-162.58-6.83 4.02-4.03zM27.1 70.27c-2.98 8.38-8.29 22.77-13 36.9a393 393 0 0 0-6.73 21.87c-1.72 6.41-2.84 11.84-2.88 15.31L.55 148.3c.22-3.35 1.25-8.24 2.8-14.01a393 393 0 0 1 6.7-21.82c5.12-15.31 10.92-30.88 13.71-38.86zM4.52 145.74c.16 2.83.87 6.7 1.9 11.1 1.17 5.07 2.78 10.9 4.51 16.78 3.41 11.56 7.32 23.4 9.3 29.96l-4.18 4.18c-2.05-6.7-5.81-18.14-9.14-29.44a308 308 0 0 1-4.5-16.72c-1.15-4.92-1.87-9.08-1.9-11.85zm25.31 83.03c37.7 17.69 74.72 36.82 113.71 52.6l-4.22 4.22C100.35 269.83 63.36 250.73 25.6 233zm-9.27-24.1c.38 1.32.83 3 1.34 4.87a218 218 0 0 0 2.1 7.3 71 71 0 0 0 2.5 6.97 17 17 0 0 0 2.52 4.35l-4.27 4.28a17 17 0 0 1-2.3-4.04c-.88-2-1.7-4.4-2.48-6.87-.77-2.47-1.47-5-2.09-7.27-.58-2.12-1.09-4.02-1.5-5.4z"/>
    <path fill="#c7b1ff" d="M369.37 340.24c-.96.53-4.29-.1-5.32-1.12-17.8-17.55-36.09-34.82-55.68-51.04l-163.94-6.89c-39.34-15.87-76.64-35.17-114.7-53.02-3.8-3.62-7.22-18.83-8.93-24.45-3.94-13.07-15.82-47.86-15.82-59.15 0-13.55 17.79-60.37 23.33-76.22 1.8-5.13 5.8-19.48 9.84-22.48C72.13 34.13 106.99 13.2 140.99 2.7c16.29-5.03 26.06-1.53 41.7-1.36 29.82.33 65.45-2.25 94.33.1 32.92 2.68 88.42 15.51 122.1 22.63 3.98.84 9.6 1.49 13.1 2.76 11.02 3.97 37.67 41.82 48.95 50.41L504 157.77l-40.99 86.08-64.3 24.52z"/>
</svg>
