<svg xmlns="http://www.w3.org/2000/svg" width="360" height="467" fill="none" viewBox="0 0 360 467">
    <path fill="#ad8dff" stroke="#ad8dff" d="M137.66 9.61c29.48 4.66 60.64 9.53 89.9 16.7 3.66.91 7.41 1.55 10.73 3.13 6.37 8.38 11.87 18.23 17.44 28.05 5.58 9.84 11.22 19.65 17.82 27.83 10.16 12.6 22.52 24.46 34.9 36.32 12.36 11.84 24.74 23.69 35.04 36.34l6.88 22.08q-.05.13-.3.34-.37.3-1.07.67c-.92.49-2.22 1-3.77 1.53a186 186 0 0 1-11.28 3.26c-4.07 1.09-8.16 2.15-11.26 3.11-1.54.48-2.86.94-3.82 1.37q-.72.31-1.18.64c-.28.2-.58.48-.65.85l-.02.1.01.1 20.04 102.88-51.8 14.86-.44.12.08.45 19.1 102.68L98.4 465.6l26.58-125.7.06-.26-.19-.19-3.71-3.92-.03-.03-.04-.03-88.31-63.16C22.2 232.13 8.59 192.4.51 151.9l23-87.18z"/>
    <path fill="#ad8dff" stroke="#ad8dff" stroke-linejoin="round" d="M236.92 17.3c3.38.81 6.83 1.43 9.93 2.8l-8.34 8.34c-3.11-1.44-6.6-2.12-9.85-2.89zm10.73 3.4c6.25 8.31 11.68 18.02 17.17 27.7 5.5 9.7 11.06 19.37 17.54 27.48l-8.38 8.38c-6.4-8.02-11.9-17.59-17.38-27.26-5.5-9.7-10.99-19.52-17.33-27.92zM283 76.66c10.09 12.45 22.3 24.16 34.54 35.88 12.27 11.76 24.57 23.53 34.82 36.07l-8.38 8.38c-10.29-12.57-22.6-24.35-34.84-36.08-12.27-11.75-24.47-23.45-34.53-35.87zm76.43 94.19-8.3 8.3-6.62-21.28 8.29-8.29zM146.85.53c29.16 4.61 59.96 9.43 88.93 16.49l-8.26 8.26c-28.96-7.09-59.75-11.92-88.89-16.53z"/>
    <path fill="#ad8dff" stroke="#ad8dff" stroke-linejoin="round" d="m350.55 179.73-.1.17-.03.06c-.01.07-.08.2-.3.4q-.3.27-.9.6-1.22.66-3.27 1.4c-2.71.96-6.31 1.98-10.05 2.98-3.73 1.01-7.6 2-10.83 2.93-1.62.46-3.08.9-4.29 1.33l-.34.12 6.53-6.53a.5.5 0 0 0 .14-.26c0 .04 0-.03.2-.18q.25-.21.81-.47c.74-.36 1.8-.75 3.08-1.17a207 207 0 0 1 9.68-2.73c3.63-.96 7.45-1.97 10.72-2.95a67 67 0 0 0 4.91-1.66z"/>
    <path fill="#ad8dff" stroke="#ad8dff" stroke-linejoin="round" d="m346.2 286.01-8.24 8.24-19.9-102.16 8.25-8.24zM137.3 8.68 25.53 62.65l6.94-6.95L144.23 1.73z"/>
    <path fill="#ad8dff" stroke="#ad8dff" stroke-linejoin="round" d="m337.39 294.82-50.26 14.42 7.63-7.64 50.26-14.41z"/>
    <path fill="#ad8dff" stroke="#ad8dff" stroke-linejoin="round" d="m313.14 404.13-8.23 8.23-18.97-101.94 8.24-8.24zM8.64 142.55l-7.68 7.68 22.58-85.59 7.69-7.69zm.15 1.27c8.09 40.21 21.6 79.78 32.06 119.55l-8.28 8.28c-10.51-39.9-24-79.37-32.03-119.59zM132.88 330.7l-8.38 8.38-3.03-3.2 8.38-8.38zm-3.78-3.85-8.38 8.37-87.63-62.67 8.37-8.38z"/>
    <path fill="#ad8dff" stroke="#ad8dff" stroke-linejoin="round" d="M304.34 412.94 99.4 465.34l7.7-7.7 204.93-52.41zm-197.97 43.99-7.8 7.8 26.37-124.68 7.8-7.8z"/>
    <mask id="a" fill="#fff">
        <path d="M106.86 457.18h-.03l-9.1 9.1h.03z"/>
    </mask>
    <path fill="#ad8dff" d="M106.86 457.18h-.03l-9.1 9.1h.03z"/>
    <path fill="#ad8dff" d="M106.83 457.18v-1a1 1 0 0 0-.7.3zm.03 0 .7.7a1 1 0 0 0-.7-1.7zm-9.1 9.1v1a1 1 0 0 0 .71-.3zm-.02 0-.7-.71a1 1 0 0 0 .7 1.7zm9.1-9.1v1h.02v-2h-.03zm.02 0-.71-.7-9.1 9.09.71.7.71.71 9.1-9.1zm-9.1 9.1v-1h-.02v2h.02zm-.02 0 .7.7 9.1-9.1-.7-.7-.72-.7-9.09 9.09z" mask="url(#a)"/>
    <path fill="#c7b1ff" d="m106.86 457.18 206.82-52.89-19.18-103.13 52.24-14.98-20.12-103.35c.54-2.68 32.48-8.24 33.38-11.84l-6.97-22.35c-20.66-25.4-49.72-47.57-70-72.72-13.14-16.3-22.48-39.1-35.32-55.98-3.41-1.64-7.3-2.3-10.95-3.2C207.45 9.54 176.2 4.67 146.69 0L32.18 55.3 9.1 142.8c8.1 40.61 21.76 80.5 32.32 120.72l88.45 63.26 3.72 3.93-26.75 126.47z"/>
    <path fill="#000" d="m122.16 121.54 138.87-54.68v63.8l-138.87 40.36z"/>
    <path fill="#fff" d="m146.59 120.64 91.3-35.77v41.74l-91.3 26.4z"/>
</svg>
