<svg xmlns="http://www.w3.org/2000/svg" width="4126" height="3552" fill="none" viewBox="0 0 4126 3552">
    <g filter="url(#a)">
        <mask id="b" fill="#fff">
            <path d="M2417.25 1256.44h945.14l-145.87 145.86h-945.14z"/>
        </mask>
        <path fill="#000" d="M2417.25 1256.44h945.14l-145.87 145.86h-945.14z"/>
        <path fill="#000" d="m3362.39 1256.44 627.2 627.2c253.69-253.68 329.57-635.2 192.28-966.65s-460.72-547.56-819.48-547.56zm-945.14 0V369.43a887 887 0 0 0-627.21 259.8zm-145.87 145.86-627.21-627.21c-253.68 253.68-329.57 635.2-192.27 966.65s460.72 547.57 819.48 547.57zm945.14 0v887.01a887 887 0 0 0 627.21-259.8zm145.87-145.86V369.43h-945.14v1774.01h945.14zm-945.14 0-627.21-627.21-145.87 145.86 627.21 627.21 627.21 627.21 145.86-145.87zm-145.87 145.86v887.01h945.14V515.3h-945.14zm945.14 0 627.21 627.21 145.86-145.87-627.2-627.2-627.21-627.21-145.87 145.86z" mask="url(#b)"/>
        <mask id="c" fill="#fff">
            <path d="M2417.25 1020.15v236.29l-145.87 145.86v-236.29z"/>
        </mask>
        <path fill="#000" d="M2417.25 1020.15v236.29l-145.87 145.86v-236.29z"/>
        <path fill="#000" d="m2417.25 1256.44 627.2 627.21a887 887 0 0 0 259.8-627.21zm0-236.29h887c0-358.76-216.11-682.2-547.56-819.48-331.45-137.3-712.97-61.4-966.65 192.27zm-145.87 145.86-627.21-627.2a887 887 0 0 0-259.79 627.2zm0 236.29h-887c0 358.76 216.11 682.2 547.56 819.49s712.97 61.4 966.65-192.28zm145.87-145.86h887v-236.29H1530.24v236.29zm0-236.29-627.21-627.2-145.87 145.86 627.21 627.2 627.21 627.21 145.86-145.86zm-145.87 145.86h-887v236.29h1774.01v-236.29zm0 236.29 627.21 627.21 145.86-145.86-627.2-627.21-627.21-627.21-145.87 145.86z" mask="url(#c)"/>
        <path fill="#c7b1ff" stroke="#c7b1ff" stroke-width="119.14" d="M3059.67 1461.87v1433.59h-242.8V1461.87zm-1067.7-135.02v1568.61h-251.84V1326.85zM1030.4 989.3v204.19H901.66v1701.97h-224.7V989.3zm1667.34 323.33v30.1h-366.78v-30.1zm361.93-87.05v15.89h-242.8v-15.89zm0-236.28v117.15h-847.85v87.04h-117.15v-204.2zm-1084.13 101.26v15.89h-438.82v87.04h-387.19v-102.93z"/>
        <path fill="#c7b1ff" stroke="#c7b1ff" stroke-linejoin="round" stroke-width="119.14" d="m3302.83 1231.76-26.73 26.73v-67.8l26.73-26.73z"/>
        <mask id="d" fill="#fff">
            <path d="M3362.39 1210.87v-55.7l-145.86 145.86v55.71z"/>
        </mask>
        <path fill="#c7b1ff" d="M3362.39 1210.87v-55.7l-145.86 145.86v55.71z"/>
        <path fill="#c7b1ff" d="M3362.39 1155.17h119.14a119.15 119.15 0 0 0-203.38-84.24zm0 55.7 84.25 84.24a119 119 0 0 0 34.89-84.24zm-145.86 145.87H3097.4a119.12 119.12 0 0 0 203.37 84.24zm0-55.71-84.24-84.24a119.2 119.2 0 0 0-34.89 84.24zm145.86-145.86h-119.13v55.7h238.27v-55.7zm0 55.7-84.24-84.24-145.86 145.86 84.24 84.25 84.24 84.24 145.87-145.87zm-145.86 145.87h119.14v-55.71H3097.4v55.71zm0-55.71 84.24 84.24 145.87-145.86-84.25-84.24-84.24-84.24-145.86 145.86z" mask="url(#d)"/>
        <path fill="#000" stroke="#000" stroke-linejoin="round" stroke-width="119.14" d="m3218.58 1270.44-26.73 26.73h-60.04l26.73-26.73z"/>
        <path fill="#c7b1ff" stroke="#c7b1ff" stroke-linejoin="round" stroke-width="119.14" d="m3218.57 1214.74-26.73 26.73h-270.33l26.73-26.73z"/>
        <mask id="e" fill="#fff">
            <path d="M3133.87 1210.87v45.57L2988 1402.3v-45.56z"/>
        </mask>
        <path fill="#c7b1ff" d="M3133.87 1210.87v45.57L2988 1402.3v-45.56z"/>
        <path fill="#c7b1ff" d="m3133.87 1256.44 84.24 84.24a119.2 119.2 0 0 0 34.89-84.24zm0-45.57H3253a119.12 119.12 0 0 0-203.38-84.24zM2988 1356.74l-84.24-84.25a119.2 119.2 0 0 0-34.89 84.25zm0 45.56h-119.13a119.14 119.14 0 0 0 203.38 84.24zm145.87-145.86H3253v-45.57h-238.27v45.57zm0-45.57-84.25-84.24-145.86 145.86 84.24 84.25 84.25 84.24 145.86-145.87zM2988 1356.74h-119.13v45.56h238.27v-45.56zm0 45.56 84.25 84.24 145.86-145.86-84.24-84.24-84.25-84.25-145.86 145.87z" mask="url(#e)"/>
        <path fill="#c7b1ff" stroke="#c7b1ff" stroke-linejoin="round" stroke-width="119.14" d="m3218.58 1079.72-26.73 26.73h-776.66l26.73-26.73zM2990.05 1316l-26.73 26.73h-41.81l26.73-26.73z"/>
        <mask id="f" fill="#fff">
            <path d="M2923.56 1155.17v101.27L2777.7 1402.3v-101.27z"/>
        </mask>
        <path fill="#c7b1ff" d="M2923.56 1155.17v101.27L2777.7 1402.3v-101.27z"/>
        <path fill="#c7b1ff" d="m2923.56 1256.44 84.24 84.24a119 119 0 0 0 34.9-84.24zm0-101.27h119.14a119.15 119.15 0 0 0-203.38-84.24zm-145.86 145.86-84.24-84.24a119.2 119.2 0 0 0-34.9 84.24zm0 101.27h-119.14a119.15 119.15 0 0 0 203.38 84.24zm145.86-145.86h119.14v-101.27h-238.27v101.27zm0-101.27-84.24-84.24-145.86 145.86 84.24 84.24 84.24 84.24 145.86-145.86zm-145.86 145.86h-119.14v101.27h238.27v-101.27zm0 101.27 84.24 84.24 145.86-145.86-84.24-84.24-84.24-84.25-145.86 145.87z" mask="url(#f)"/>
        <path fill="#c7b1ff" stroke="#c7b1ff" stroke-linejoin="round" stroke-width="119.14" d="m3205.52 2784.49-26.73 26.73V954.4l26.73-26.72zm-446.18-1617.73-26.72 26.73h-537.28l26.72-26.73zm361.95-323.33-26.73 26.73H761.2l26.73-26.73zm-999.91 253.31-26.72 26.73v-67.8l26.72-26.73z"/>
        <mask id="g" fill="#fff">
            <path d="M2180.95 1075.85v-55.7l-145.86 145.86v55.71z"/>
        </mask>
        <path fill="#c7b1ff" d="M2180.95 1075.85v-55.7l-145.86 145.86v55.71z"/>
        <path fill="#c7b1ff" d="M2180.95 1020.15h119.14a119.14 119.14 0 0 0-203.38-84.24zm0 55.7 84.24 84.25a119 119 0 0 0 34.9-84.25zm-145.86 145.87h-119.14a119.13 119.13 0 0 0 203.38 84.24zm0-55.71-84.24-84.24a119.2 119.2 0 0 0-34.9 84.24zm145.86-145.86h-119.13v55.7h238.27v-55.7zm0 55.7-84.24-84.24-145.86 145.87 84.24 84.24 84.24 84.24 145.86-145.86zm-145.86 145.87h119.14v-55.71h-238.28v55.71zm0-55.71 84.24 84.25 145.86-145.87-84.24-84.24-84.24-84.24-145.86 145.86z" mask="url(#g)"/>
        <path fill="#c7b1ff" stroke="#c7b1ff" stroke-linejoin="round" stroke-width="119.14" d="m2037.15 1135.42-26.73 26.73h-60.04l26.73-26.73z"/>
        <path fill="#c7b1ff" stroke="#d0bffc" stroke-linejoin="round" stroke-width="119.14" d="m2843.57 2784.49-26.73 26.73V1277.73l26.73-26.72z"/>
        <path fill="#c7b1ff" stroke="#c7b1ff" stroke-linejoin="round" stroke-width="119.14" d="m2037.13 1079.72-26.73 26.73h-270.33l26.73-26.73z"/>
        <mask id="h" fill="#fff">
            <path d="M1952.43 1075.85v45.57l-145.86 145.86v-45.56z"/>
        </mask>
        <path fill="#c7b1ff" d="M1952.43 1075.85v45.57l-145.86 145.86v-45.56z"/>
        <path fill="#c7b1ff" d="m1952.43 1121.42 84.24 84.24a119 119 0 0 0 34.9-84.24zm0-45.57h119.14a119.14 119.14 0 0 0-203.38-84.24zm-145.86 145.87-84.24-84.24a119 119 0 0 0-34.9 84.24zm0 45.56h-119.14a119.14 119.14 0 0 0 203.38 84.24zm145.86-145.86h119.14v-45.57H1833.3v45.57zm0-45.57-84.24-84.24-145.86 145.87 84.24 84.24 84.24 84.24 145.86-145.86zm-145.86 145.87h-119.14v45.56h238.28v-45.56zm0 45.56 84.24 84.24 145.86-145.86-84.24-84.24-84.24-84.24-145.86 145.86z" mask="url(#h)"/>
        <path fill="#c7b1ff" stroke="#c7b1ff" stroke-linejoin="round" stroke-width="119.14" d="m2037.14 944.7-26.72 26.72h-776.66l26.73-26.72zm-228.53 236.28-26.73 26.73h-41.81l26.73-26.73z"/>
        <mask id="i" fill="#fff">
            <path d="M1742.12 1020.15v101.27l-145.86 145.86v-101.27z"/>
        </mask>
        <path fill="#c7b1ff" d="M1742.12 1020.15v101.27l-145.86 145.86v-101.27z"/>
        <path fill="#c7b1ff" d="m1742.12 1121.42 84.25 84.24a119.2 119.2 0 0 0 34.89-84.24zm0-101.27h119.14a119.14 119.14 0 0 0-203.38-84.24zm-145.86 145.86-84.24-84.24a119.2 119.2 0 0 0-34.89 84.24zm0 101.27h-119.13a119.13 119.13 0 0 0 203.37 84.24zm145.86-145.86h119.14v-101.27h-238.27v101.27zm0-101.27-84.24-84.24-145.86 145.86 84.24 84.24 84.24 84.25 145.87-145.87zm-145.86 145.86h-119.13v101.27h238.27v-101.27zm0 101.27 84.24 84.24 145.87-145.86-84.25-84.24-84.24-84.24-145.86 145.86z" mask="url(#i)"/>
        <path fill="#c7b1ff" stroke="#c7b1ff" stroke-linejoin="round" stroke-width="119.14" d="m2037.14 1180.98-26.72 26.73h-776.66l26.73-26.73z"/>
        <path fill="#c7b1ff" stroke="#c7b1ff" stroke-linejoin="round" stroke-width="119.14" d="m1682.62 1166.76-26.73 26.73h-550.85l26.72-26.73zm1438.64 1701.98-26.73 26.72h-193.45l26.73-26.72zm-983.44-84.25-26.73 26.73V1277.73l26.73-26.72zm-961.58-1687.75-26.72 26.73v-67.8l26.72-26.73z"/>
        <path fill="#c7b1ff" stroke="#d0bffc" stroke-linejoin="round" stroke-width="119.14" d="m1766.85 2784.49-26.73 26.73V1277.73l26.73-26.72z"/>
        <path fill="#000" stroke="#c8b3ff" stroke-linejoin="round" stroke-width="119.14" d="m2053.58 2868.74-26.72 26.72h-202.5l26.73-26.72z"/>
        <path fill="#c7b1ff" stroke="#c7b1ff" stroke-linejoin="round" stroke-width="119.14" d="m1047.52 2784.49-26.73 26.73V1277.73l26.73-26.72z"/>
        <path fill="#c7b1ff" stroke="#b699ff" stroke-linejoin="round" stroke-width="119.14" d="m703.69 2784.49-26.73 26.73V954.4l26.73-26.72z"/>
        <path fill="#c7b1ff" stroke="#b99dff" stroke-linejoin="round" stroke-width="119.14" d="m963.28 2868.74-26.73 26.72H761.2l26.73-26.72z"/>
        <g filter="url(#j)">
            <path fill="#c7b1ff" d="M2197.39 2809.17h-370.98V1107.2h-719.34v1701.97H763.24V783.87h2501.84v2025.3h-361.93V1107.2h-705.76z"/>
            <path fill="#000" d="M2417.23 1020.15h945.14v236.28h-945.14zM1235.79 885.13h945.14v236.28h-945.14z"/>
            <path fill="#fff" d="M3362.35 1155.17h-438.81v101.27h210.29v-45.57h228.52zm-1181.39-135.02h-438.81v101.27h210.29v-45.57h228.52z"/>
        </g>
    </g>
    <defs>
        <filter id="a" width="3245" height="2671.16" x="407.39" y="583.87" color-interpolation-filters="sRGB" filterUnits="userSpaceOnUse">
            <feFlood flood-opacity="0" result="BackgroundImageFix"/>
            <feColorMatrix in="SourceAlpha" result="hardAlpha" values="0 0 0 0 0 0 0 0 0 0 0 0 0 0 0 0 0 0 127 0"/>
            <feOffset dx="40" dy="50"/>
            <feGaussianBlur stdDeviation="125"/>
            <feComposite in2="hardAlpha" operator="out"/>
            <feColorMatrix values="0 0 0 0 0 0 0 0 0 0 0 0 0 0 0 0 0 0 0.25 0"/>
            <feBlend in2="BackgroundImageFix" result="effect1_dropShadow_43_129"/>
            <feBlend in="SourceGraphic" in2="effect1_dropShadow_43_129" result="shape"/>
        </filter>
        <filter id="j" width="4125.61" height="3551.78" x="0" y="0" color-interpolation-filters="sRGB" filterUnits="userSpaceOnUse">
            <feFlood flood-opacity="0" result="BackgroundImageFix"/>
            <feColorMatrix in="SourceAlpha" result="hardAlpha" values="0 0 0 0 0 0 0 0 0 0 0 0 0 0 0 0 0 0 127 0"/>
            <feOffset dy="-20.63"/>
            <feGaussianBlur stdDeviation="381.62"/>
            <feComposite in2="hardAlpha" operator="out"/>
            <feColorMatrix values="0 0 0 0 1 0 0 0 0 1 0 0 0 0 1 0 0 0 0.13 0"/>
            <feBlend in2="BackgroundImageFix" result="effect1_dropShadow_43_129"/>
            <feBlend in="SourceGraphic" in2="effect1_dropShadow_43_129" result="shape"/>
        </filter>
    </defs>
</svg>
