<svg xmlns="http://www.w3.org/2000/svg"><symbol id="bluesky-icon" viewBox="0 0 16 17"><g clip-path="url(#bluesky-clip)"><path fill="#08060d" d="M7.75 7.74a17 17 0 0 0-4.33-5.1C1.74 1.45 1.1 1.66.68 1.84c-.5.22-.58.97-.58 1.41s.24 3.6.4 4.13c.52 1.75 2.37 2.33 4.07 2.15-2.5.37-4.71 1.27-1.8 4.5 3.19 3.32 4.37-.7 4.98-2.74.6 2.04 1.3 5.91 4.93 2.75 2.72-2.75.75-4.14-1.75-4.51 1.7.19 3.55-.4 4.07-2.15.16-.53.4-3.69.4-4.13s-.09-1.18-.57-1.4c-.42-.2-1.06-.4-2.75.79a17 17 0 0 0-4.33 5.1"/></g><defs><clipPath id="bluesky-clip"><path fill="#fff" d="M.1.85h15.3v15.3H.1z"/></clipPath></defs></symbol><symbol id="discord-icon" viewBox="0 0 20 19"><path fill="#08060d" d="M16.22 3.77a15 15 0 0 0-3.67-1.16c-.15.3-.34.68-.47.98a14 14 0 0 0-4.06 0c-.13-.3-.32-.69-.48-.98a14 14 0 0 0-3.67 1.16 15.4 15.4 0 0 0-2.64 10.3 15 15 0 0 0 4.5 2.31q.55-.74.97-1.58a10 10 0 0 1-1.52-.74q.19-.14.37-.3a10.4 10.4 0 0 0 9 0q.18.16.37.3-.72.43-1.52.74.42.83.96 1.59a15 15 0 0 0 4.5-2.31c.38-3.91-.62-7.3-2.64-10.31M7.1 12c-.87 0-1.6-.82-1.6-1.82s.71-1.82 1.6-1.82 1.62.82 1.6 1.82c0 1-.7 1.82-1.6 1.82m5.9 0c-.87 0-1.6-.82-1.6-1.82s.71-1.82 1.6-1.82 1.62.82 1.6 1.82c0 1-.7 1.82-1.6 1.82"/></symbol><symbol id="documentation-icon" viewBox="0 0 21 20"><path fill="none" stroke="#aa3bff" stroke-linecap="round" stroke-linejoin="round" stroke-width="1.35" d="m15.5 13.33 1.53 1.33c.65.55.97.83.97 1.17s-.32.63-.97 1.18l-1.53 1.32m-3.33-5-1.54 1.32c-.64.56-.96.84-.96 1.18s.32.63.96 1.18l1.54 1.32"/><path fill="none" stroke="#aa3bff" stroke-linecap="round" stroke-linejoin="round" stroke-width="1.35" d="M17.17 10.84V6.52c0-1.41 0-2.12-.23-2.68a3.5 3.5 0 0 0-2.08-1.96c-.6-.21-1.35-.21-2.84-.21-2.63 0-3.94 0-4.99.37A6 6 0 0 0 3.4 5.46c-.4.99-.4 2.22-.4 4.7v2.12c0 2.55 0 3.83.7 4.72q.31.38.72.67c.76.54 1.79.64 3.58.66"/><path fill="none" stroke="#aa3bff" stroke-linecap="round" stroke-linejoin="round" stroke-width="1.35" d="M3 10a2.8 2.8 0 0 1 2.78-2.78c.55 0 1.2.1 1.75-.05.48-.12.85-.5.98-.98.14-.54.05-1.2.05-1.75a2.8 2.8 0 0 1 2.77-2.77"/></symbol><symbol id="github-icon" viewBox="0 0 19 19"><path fill="#08060d" fill-rule="evenodd" d="M9.36 1.85a7.8 7.8 0 0 0-7.79 7.84 7.8 7.8 0 0 0 5.32 7.44c.4.08.53-.16.53-.37l-.01-1.46c-2.17.47-2.62-.93-2.62-.93-.35-.91-.86-1.14-.86-1.14-.71-.48.05-.48.05-.48.79.05 1.2.8 1.2.8.7 1.2 1.82.86 2.27.65.06-.5.27-.86.49-1.05-1.73-.18-3.55-.86-3.55-3.87 0-.86.31-1.56.8-2.1-.07-.2-.35-1 .08-2.08 0 0 .66-.21 2.14.8a8 8 0 0 1 1.95-.26q1 .01 1.94.26c1.49-1.01 2.14-.8 2.14-.8a2.8 2.8 0 0 1 .08 2.07c.5.55.8 1.25.8 2.1 0 3.02-1.82 3.68-3.56 3.88.29.24.53.71.53 1.45l-.01 2.16c0 .2.14.45.53.37a7.8 7.8 0 0 0 5.32-7.44 7.8 7.8 0 0 0-7.77-7.84" clip-rule="evenodd"/></symbol><symbol id="social-icon" viewBox="0 0 20 20"><path fill="none" stroke="#aa3bff" stroke-linecap="round" stroke-linejoin="round" stroke-width="1.35" d="M12.5 6.67a4.17 4.17 0 1 0-8.33 0 4.17 4.17 0 0 0 8.33 0"/><path fill="none" stroke="#aa3bff" stroke-linecap="round" stroke-linejoin="round" stroke-width="1.35" d="M2.5 16.67a5.83 5.83 0 0 1 8.75-5.06m3.84.48.51 1.03a.6.6 0 0 0 .41.31l.93.16c.6.1.74.53.31.96l-.72.73a.6.6 0 0 0-.15.53l.2.9c.17.72-.21 1-.84.62l-.87-.52a.6.6 0 0 0-.58 0l-.87.52c-.62.38-1 .1-.84-.61l.2-.9a.6.6 0 0 0-.14-.54l-.73-.73c-.42-.43-.29-.86.31-.96l.93-.16a.6.6 0 0 0 .41-.3l.51-1.04c.28-.56.74-.56 1.02 0"/></symbol><symbol id="x-icon" viewBox="0 0 19 19"><path fill="#08060d" fill-rule="evenodd" d="m1.9 1.98 2.65 3.77 2.89 4.11.33.49-.15.18-.52.6-.77.86-3.6 4.09-.8.9-.11.15q.02.02.66.02h.67l.73-.83c.4-.46.8-.9.87-1l1.8-2.04.6-.67.54-.63.35-.39.34-.37 2.05 2.9 2.08 2.97.05.06h2.27c1.87 0 2.28 0 2.27-.02l-3.9-5.55a87 87 0 0 1-2.27-3.27l2.09-2.38 2-2.27 1.57-1.78c.02-.03-.02-.03-.65-.03h-.68l-.3.34-1.78 2.03-.75.85-.8.9-1 1.14c-.3.34-.31.35-.34.32l-1.98-2.8-1.95-2.78H1.8zm1.78.91 8.07 11.3 1.43 1.98c.01.01.24.02 1.05.01h1.03l-2.7-3.77L7.8 5.75l-2.08-2.9H3.64z" clip-rule="evenodd"/></symbol></svg>